<svg width="277" height="277" viewBox="0 0 277 277" fill="none" xmlns="http://www.w3.org/2000/svg">
<rect width="276.925" height="276.925" fill="#132C44"/>
<path d="M92.9275 62.1543H182.395C200.656 62.1543 215.409 74.8994 216.356 92.7393C216.961 104.127 217.406 118.866 217.406 137.581C217.406 156.296 216.961 171.036 216.356 182.424C215.409 200.264 200.656 213.009 182.395 213.009H92.9275C74.596 213.009 59.7598 200.177 58.8074 182.262C58.2019 170.873 57.7566 156.174 57.7566 137.581C57.7566 118.988 58.2019 104.29 58.8074 92.9014C59.7598 74.986 74.596 62.1543 92.9275 62.1543Z" stroke="url(#paint0_linear_24_790)" stroke-width="6.57381"/>
<mask id="path-2-inside-1_24_790" fill="white">
<path d="M89.5963 152.304C89.5963 144.406 94.1169 137.81 101.487 132.674C109.306 142.937 119.851 153.324 132.603 162.814C127.476 168.231 120.387 172.91 111.056 172.91C99.042 172.91 89.7195 164.687 89.5875 152.304M149.463 115.568C149.463 122.41 152.19 128.813 162.823 135.646L167.792 138.944C177.237 144.978 180.685 149.375 180.685 156.341C180.685 164.362 174.309 172.172 163.676 172.172C162.823 172.172 161.996 172.075 161.055 171.908C151.037 170.114 141.143 161.257 141.143 161.257C146.051 154.195 149.015 145.989 149.604 136.596C149.604 136.596 146.754 133.474 145.136 131.979C144.239 139.551 141.987 149.956 136.244 157.941C132.867 155.171 126.957 150.387 117.546 141.882C103.985 127.3 100.37 121.935 100.37 115.137C100.37 106.544 106.518 101.821 113.888 101.821C121.258 101.821 125.497 104.873 127.731 107.767C127.96 106.122 128.487 103.052 128.786 101.417C126.218 99.5433 121.495 97.5908 114.82 97.5908C101.056 97.5908 94.5742 106.227 94.5742 115.796C94.5742 120.686 96.043 124.714 99.2179 129.437C89.6931 136.28 83.4927 143.975 83.4927 153.632C83.4927 165.971 92.8592 178.064 109.358 178.064C126.702 178.064 131.926 171.688 137.098 166.094L144.089 171.116C144.089 171.116 154.028 177.642 162.471 177.844C170.448 178.046 174.449 176.208 178.733 173.236C185.812 168.187 187.765 160.342 187.765 155.048C187.765 147.845 184.669 141.574 172.488 133.791L167.642 130.695C157.379 123.852 155.954 119.947 155.954 114.037C155.954 106.465 161.855 101.742 170.122 101.742C177.572 101.742 182.611 105.005 184.484 107.371C184.871 104.952 185.276 102.34 185.452 101.179C184.713 100.511 182.356 99.3146 180.307 98.6726C178.126 97.9866 174.713 97.5645 170.844 97.5645C157.115 97.5645 149.428 105.524 149.428 115.585"/>
</mask>
<path d="M89.5963 152.304C89.5963 144.406 94.1169 137.81 101.487 132.674C109.306 142.937 119.851 153.324 132.603 162.814C127.476 168.231 120.387 172.91 111.056 172.91C99.042 172.91 89.7195 164.687 89.5875 152.304M149.463 115.568C149.463 122.41 152.19 128.813 162.823 135.646L167.792 138.944C177.237 144.978 180.685 149.375 180.685 156.341C180.685 164.362 174.309 172.172 163.676 172.172C162.823 172.172 161.996 172.075 161.055 171.908C151.037 170.114 141.143 161.257 141.143 161.257C146.051 154.195 149.015 145.989 149.604 136.596C149.604 136.596 146.754 133.474 145.136 131.979C144.239 139.551 141.987 149.956 136.244 157.941C132.867 155.171 126.957 150.387 117.546 141.882C103.985 127.3 100.37 121.935 100.37 115.137C100.37 106.544 106.518 101.821 113.888 101.821C121.258 101.821 125.497 104.873 127.731 107.767C127.96 106.122 128.487 103.052 128.786 101.417C126.218 99.5433 121.495 97.5908 114.82 97.5908C101.056 97.5908 94.5742 106.227 94.5742 115.796C94.5742 120.686 96.043 124.714 99.2179 129.437C89.6931 136.28 83.4927 143.975 83.4927 153.632C83.4927 165.971 92.8592 178.064 109.358 178.064C126.702 178.064 131.926 171.688 137.098 166.094L144.089 171.116C144.089 171.116 154.028 177.642 162.471 177.844C170.448 178.046 174.449 176.208 178.733 173.236C185.812 168.187 187.765 160.342 187.765 155.048C187.765 147.845 184.669 141.574 172.488 133.791L167.642 130.695C157.379 123.852 155.954 119.947 155.954 114.037C155.954 106.465 161.855 101.742 170.122 101.742C177.572 101.742 182.611 105.005 184.484 107.371C184.871 104.952 185.276 102.34 185.452 101.179C184.713 100.511 182.356 99.3146 180.307 98.6726C178.126 97.9866 174.713 97.5645 170.844 97.5645C157.115 97.5645 149.428 105.524 149.428 115.585" fill="#E6E6E6"/>
<path d="M101.487 132.674L106.716 128.69L102.898 123.678L97.7284 127.28L101.487 132.674ZM132.603 162.814L137.378 167.332L142.465 161.958L136.528 157.54L132.603 162.814ZM162.823 135.646L166.458 130.169L166.417 130.142L166.377 130.116L162.823 135.646ZM167.792 138.944L164.156 144.422L164.204 144.453L164.253 144.485L167.792 138.944ZM161.055 171.908L159.896 178.379L159.905 178.38L161.055 171.908ZM141.143 161.257L135.745 157.506L132.428 162.279L136.759 166.155L141.143 161.257ZM149.604 136.596L156.165 137.008L156.339 134.224L154.459 132.165L149.604 136.596ZM145.136 131.979L149.597 127.15L140.125 118.399L138.608 131.205L145.136 131.979ZM136.244 157.941L132.075 163.024L137.491 167.467L141.581 161.78L136.244 157.941ZM117.546 141.882L112.733 146.359L112.927 146.568L113.139 146.759L117.546 141.882ZM127.731 107.767L122.527 111.784L132.088 124.167L134.242 108.672L127.731 107.767ZM128.786 101.417L135.253 102.599L135.995 98.5382L132.66 96.1056L128.786 101.417ZM99.2179 129.437L103.053 134.776L108.229 131.058L104.674 125.77L99.2179 129.437ZM137.098 166.094L140.932 160.755L136.214 157.366L132.271 161.632L137.098 166.094ZM144.089 171.116L140.255 176.455L140.366 176.536L140.481 176.611L144.089 171.116ZM162.471 177.844L162.637 171.273L162.628 171.272L162.471 177.844ZM178.733 173.236L182.481 178.636L182.515 178.612L182.549 178.588L178.733 173.236ZM172.488 133.791L176.028 128.251L176.027 128.251L172.488 133.791ZM167.642 130.695L163.996 136.165L164.049 136.2L164.103 136.235L167.642 130.695ZM184.484 107.371L179.331 111.452L188.613 123.175L190.976 108.409L184.484 107.371ZM185.452 101.179L191.951 102.164L192.48 98.6732L189.862 96.3044L185.452 101.179ZM180.307 98.6726L178.335 104.944L178.341 104.946L180.307 98.6726ZM89.5963 152.304H96.1701C96.1701 147.269 98.9594 142.448 105.246 138.067L101.487 132.674L97.7284 127.28C89.2743 133.172 83.0225 141.543 83.0225 152.304H89.5963ZM101.487 132.674L96.2577 136.657C104.491 147.466 115.493 158.275 128.679 168.088L132.603 162.814L136.528 157.54C124.209 148.373 114.12 138.409 106.716 128.69L101.487 132.674ZM132.603 162.814L127.829 158.295C123.448 162.924 117.969 166.336 111.056 166.336V172.91V179.484C122.806 179.484 131.504 173.539 137.378 167.332L132.603 162.814ZM111.056 172.91V166.336C102.301 166.336 96.2509 160.679 96.161 152.234L89.5875 152.304L83.0141 152.374C83.188 168.695 95.7832 179.484 111.056 179.484V172.91ZM149.463 115.568H142.889C142.889 119.95 143.787 124.495 146.537 129.023C149.224 133.447 153.413 137.413 159.268 141.177L162.823 135.646L166.377 130.116C161.599 127.046 159.108 124.393 157.774 122.197C156.503 120.105 156.037 118.027 156.037 115.568H149.463ZM162.823 135.646L159.187 141.124L164.156 144.422L167.792 138.944L171.427 133.467L166.458 130.169L162.823 135.646ZM167.792 138.944L164.253 144.485C168.792 147.384 171.203 149.479 172.521 151.237C173.63 152.715 174.111 154.139 174.111 156.341H180.685H187.259C187.259 151.576 186.016 147.319 183.04 143.349C180.273 139.659 176.237 136.538 171.33 133.404L167.792 138.944ZM180.685 156.341H174.111C174.111 160.798 170.611 165.598 163.676 165.598V172.172V178.745C178.006 178.745 187.259 167.925 187.259 156.341H180.685ZM163.676 172.172V165.598C163.338 165.598 162.921 165.562 162.204 165.435L161.055 171.908L159.905 178.38C161.071 178.587 162.307 178.745 163.676 178.745V172.172ZM161.055 171.908L162.214 165.437C158.498 164.771 154.4 162.672 150.942 160.409C149.279 159.32 147.891 158.279 146.926 157.515C146.446 157.135 146.076 156.828 145.836 156.624C145.716 156.523 145.629 156.447 145.576 156.402C145.55 156.379 145.533 156.364 145.525 156.356C145.521 156.353 145.519 156.351 145.519 156.351C145.519 156.352 145.52 156.352 145.522 156.354C145.522 156.354 145.523 156.355 145.524 156.356C145.525 156.356 145.526 156.357 145.526 156.357C145.527 156.358 145.528 156.359 141.143 161.257C136.759 166.155 136.76 166.156 136.761 166.157C136.761 166.157 136.762 166.158 136.763 166.159C136.765 166.16 136.766 166.162 136.768 166.164C136.772 166.167 136.777 166.171 136.782 166.176C136.792 166.184 136.804 166.196 136.819 166.209C136.849 166.235 136.888 166.27 136.937 166.312C137.035 166.397 137.17 166.514 137.34 166.658C137.679 166.946 138.161 167.345 138.765 167.823C139.969 168.776 141.68 170.06 143.743 171.41C147.736 174.024 153.594 177.25 159.896 178.379L161.055 171.908ZM141.143 161.257L146.542 165.008C152.137 156.957 155.501 147.595 156.165 137.008L149.604 136.596L143.043 136.185C142.529 144.383 139.965 151.433 135.745 157.506L141.143 161.257ZM149.604 136.596C154.459 132.165 154.459 132.165 154.459 132.164C154.459 132.164 154.459 132.164 154.459 132.164C154.459 132.164 154.458 132.164 154.458 132.163C154.458 132.163 154.457 132.162 154.456 132.161C154.454 132.159 154.451 132.156 154.448 132.152C154.442 132.145 154.432 132.135 154.421 132.122C154.397 132.096 154.363 132.06 154.32 132.013C154.234 131.919 154.111 131.785 153.959 131.621C153.655 131.292 153.231 130.837 152.754 130.332C151.839 129.365 150.587 128.065 149.597 127.15L145.136 131.979L140.675 136.807C141.304 137.388 142.285 138.397 143.2 139.364C143.637 139.827 144.027 140.246 144.308 140.549C144.448 140.701 144.56 140.823 144.636 140.905C144.674 140.947 144.703 140.979 144.722 140.999C144.732 141.01 144.739 141.017 144.743 141.022C144.745 141.025 144.747 141.026 144.748 141.027C144.748 141.028 144.748 141.028 144.749 141.028C144.749 141.028 144.749 141.028 144.749 141.028C144.749 141.028 144.748 141.028 144.748 141.028C144.748 141.028 144.748 141.028 149.604 136.596ZM145.136 131.979L138.608 131.205C137.753 138.424 135.668 147.484 130.907 154.103L136.244 157.941L141.581 161.78C148.307 152.427 150.725 140.678 151.664 132.752L145.136 131.979ZM136.244 157.941L140.414 152.859C137.053 150.102 131.243 145.399 121.954 137.005L117.546 141.882L113.139 146.759C122.671 155.374 128.682 160.24 132.075 163.024L136.244 157.941ZM117.546 141.882L122.36 137.405C115.551 130.084 111.636 125.485 109.391 122.018C107.334 118.841 106.944 117.022 106.944 115.137H100.37H93.7962C93.7962 120.05 95.2138 124.313 98.3546 129.163C101.307 133.724 105.98 139.098 112.733 146.359L117.546 141.882ZM100.37 115.137H106.944C106.944 112.51 107.83 110.999 108.809 110.101C109.87 109.127 111.58 108.395 113.888 108.395V101.821V95.2474C108.825 95.2474 103.776 96.8763 99.9215 100.412C95.9839 104.024 93.7962 109.171 93.7962 115.137H100.37ZM113.888 101.821V108.395C119.172 108.395 121.508 110.464 122.527 111.784L127.731 107.767L132.934 103.749C129.486 99.2825 123.344 95.2474 113.888 95.2474V101.821ZM127.731 107.767L134.242 108.672C134.451 107.171 134.958 104.213 135.253 102.599L128.786 101.417L122.32 100.235C122.017 101.892 121.468 105.073 121.22 106.861L127.731 107.767ZM128.786 101.417L132.66 96.1056C128.856 93.3307 122.744 91.017 114.82 91.017V97.5908V104.165C120.247 104.165 123.58 105.756 124.912 106.728L128.786 101.417ZM114.82 97.5908V91.017C106.516 91.017 99.6648 93.6589 94.8774 98.4668C90.135 103.229 88.0004 109.537 88.0004 115.796H94.5742H101.148C101.148 112.486 102.254 109.692 104.194 107.744C106.088 105.841 109.36 104.165 114.82 104.165V97.5908ZM94.5742 115.796H88.0004C88.0004 122.312 90.0598 127.597 93.7623 133.105L99.2179 129.437L104.674 125.77C102.026 121.832 101.148 119.06 101.148 115.796H94.5742ZM99.2179 129.437L95.3825 124.098C85.2912 131.347 76.9189 140.755 76.9189 153.632H83.4927H90.0665C90.0665 147.195 94.0949 141.212 103.053 134.776L99.2179 129.437ZM83.4927 153.632H76.9189C76.9189 169.376 89.0073 184.638 109.358 184.638V178.064V171.49C96.7111 171.49 90.0665 162.566 90.0665 153.632H83.4927ZM109.358 178.064V184.638C118.861 184.638 125.667 182.883 130.989 179.921C136.194 177.024 139.497 173.182 141.924 170.557L137.098 166.094L132.271 161.632C129.527 164.6 127.632 166.743 124.596 168.433C121.677 170.057 117.199 171.49 109.358 171.49V178.064ZM137.098 166.094L133.263 171.434L140.255 176.455L144.089 171.116L147.924 165.777L140.932 160.755L137.098 166.094ZM144.089 171.116C140.481 176.611 140.482 176.612 140.483 176.613C140.484 176.613 140.485 176.614 140.486 176.614C140.487 176.615 140.489 176.616 140.491 176.618C140.495 176.62 140.5 176.623 140.505 176.627C140.515 176.633 140.528 176.642 140.543 176.651C140.573 176.671 140.613 176.697 140.663 176.728C140.761 176.791 140.897 176.877 141.067 176.983C141.407 177.194 141.887 177.485 142.484 177.83C143.672 178.517 145.349 179.432 147.327 180.358C151.109 182.128 156.706 184.282 162.313 184.416L162.471 177.844L162.628 171.272C159.793 171.204 156.199 169.994 152.901 168.45C151.339 167.72 150.004 166.991 149.065 166.448C148.598 166.178 148.235 165.957 147.999 165.811C147.881 165.738 147.795 165.683 147.744 165.651C147.718 165.634 147.701 165.623 147.693 165.618C147.69 165.616 147.688 165.615 147.689 165.615C147.689 165.615 147.69 165.616 147.691 165.617C147.692 165.617 147.693 165.618 147.694 165.619C147.695 165.619 147.696 165.62 147.696 165.62C147.697 165.62 147.698 165.621 144.089 171.116ZM162.471 177.844L162.304 184.416C166.834 184.531 170.588 184.074 173.98 182.995C177.38 181.913 180.06 180.317 182.481 178.636L178.733 173.236L174.984 167.835C173.122 169.128 171.659 169.936 169.994 170.466C168.32 170.999 166.084 171.36 162.637 171.273L162.471 177.844ZM178.733 173.236L182.549 178.588C191.926 171.902 194.339 161.659 194.339 155.048H187.765H181.191C181.191 159.026 179.699 164.473 174.916 167.883L178.733 173.236ZM187.765 155.048H194.339C194.339 150.358 193.289 145.672 190.162 140.988C187.162 136.492 182.511 132.394 176.028 128.251L172.488 133.791L168.948 139.33C174.646 142.971 177.634 145.9 179.227 148.286C180.693 150.484 181.191 152.535 181.191 155.048H187.765ZM172.488 133.791L176.027 128.251L171.181 125.155L167.642 130.695L164.103 136.235L168.949 139.33L172.488 133.791ZM167.642 130.695L171.289 125.225C166.384 121.956 164.385 119.882 163.492 118.482C162.798 117.395 162.528 116.368 162.528 114.037H155.954H149.38C149.38 117.617 149.821 121.498 152.406 125.551C154.792 129.291 158.636 132.592 163.996 136.165L167.642 130.695ZM155.954 114.037H162.528C162.528 112.098 163.217 110.888 164.189 110.064C165.269 109.148 167.197 108.316 170.122 108.316V101.742V95.1682C164.78 95.1682 159.624 96.6972 155.686 100.036C151.641 103.466 149.38 108.405 149.38 114.037H155.954ZM170.122 101.742V108.316C175.77 108.316 178.827 110.816 179.331 111.452L184.484 107.371L189.638 103.29C186.395 99.194 179.373 95.1682 170.122 95.1682V101.742ZM184.484 107.371L190.976 108.409C191.365 105.974 191.773 103.344 191.951 102.164L185.452 101.179L178.952 100.194C178.779 101.337 178.377 103.931 177.993 106.332L184.484 107.371ZM185.452 101.179L189.862 96.3044C188.763 95.3101 187.27 94.5094 186.28 94.0211C185.096 93.4366 183.677 92.8396 182.272 92.3995L180.307 98.6726L178.341 104.946C178.986 105.148 179.77 105.47 180.461 105.811C180.799 105.977 181.056 106.12 181.219 106.219C181.448 106.357 181.317 106.304 181.041 106.054L185.452 101.179ZM180.307 98.6726L182.279 92.4016C179.204 91.4344 175.047 90.9906 170.844 90.9906V97.5645V104.138C174.38 104.138 177.048 104.539 178.335 104.944L180.307 98.6726ZM170.844 97.5645V90.9906C162.718 90.9906 155.692 93.3607 150.61 97.8978C145.486 102.472 142.854 108.805 142.854 115.585H149.428H156.002C156.002 112.304 157.214 109.627 159.365 107.706C161.559 105.748 165.241 104.138 170.844 104.138V97.5645Z" fill="url(#paint1_linear_24_790)" mask="url(#path-2-inside-1_24_790)"/>
<defs>
<linearGradient id="paint0_linear_24_790" x1="60.8538" y1="58.8672" x2="214.309" y2="216.296" gradientUnits="userSpaceOnUse">
<stop stop-color="#D4C575"/>
<stop offset="1" stop-color="#BCA14C"/>
</linearGradient>
<linearGradient id="paint1_linear_24_790" x1="135.629" y1="97.5645" x2="135.629" y2="178.064" gradientUnits="userSpaceOnUse">
<stop stop-color="#D4C575"/>
<stop offset="1" stop-color="#BCA14C"/>
</linearGradient>
</defs>
</svg>
